<svg xmlns="http://www.w3.org/2000/svg" xmlns:xlink="http://www.w3.org/1999/xlink" version="1.1" style="enable-background:new 0 0 80 80;" xml:space="preserve" width="80" height="80"><rect id="backgroundrect" width="100%" height="100%" x="0" y="0" fill="none" stroke="none"/>



<g class="currentLayer" style=""><title>Layer 1</title><g id="svg_1" class="" stroke="#ffffff" stroke-opacity="1" fill="#ffffff" fill-opacity="1">
	<circle style="" cx="40" cy="40" r="7.5" id="svg_2" stroke="#ffffff" stroke-opacity="1" fill="#ffffff" fill-opacity="1"/>
	<path style="" d="M40,33c3.86,0,7,3.14,7,7s-3.14,7-7,7s-7-3.14-7-7S36.14,33,40,33 M40,32c-4.418,0-8,3.582-8,8   s3.582,8,8,8s8-3.582,8-8S44.418,32,40,32L40,32z" id="svg_3" stroke="#ffffff" stroke-opacity="1" fill="#ffffff" fill-opacity="1"/>
</g><g id="svg_4" class="" fill="#ffffff" fill-opacity="1" stroke="#ffffff" stroke-opacity="1">
	<circle style="" cx="40" cy="14" r="7.5" id="svg_5" fill="#ffffff" fill-opacity="1" stroke="#ffffff" stroke-opacity="1"/>
	<path style="" d="M40,7c3.86,0,7,3.14,7,7s-3.14,7-7,7s-7-3.14-7-7S36.14,7,40,7 M40,6c-4.418,0-8,3.582-8,8   s3.582,8,8,8s8-3.582,8-8S44.418,6,40,6L40,6z" id="svg_6" fill="#ffffff" fill-opacity="1" stroke="#ffffff" stroke-opacity="1"/>
</g><g id="svg_7" class="" stroke="#ffffff" stroke-opacity="1" fill="#ffffff" fill-opacity="1">
	<circle style="" cx="40" cy="66" r="7.5" id="svg_8" stroke="#ffffff" stroke-opacity="1" fill="#ffffff" fill-opacity="1"/>
	<path style="" d="M40,59c3.86,0,7,3.14,7,7s-3.14,7-7,7s-7-3.14-7-7S36.14,59,40,59 M40,58c-4.418,0-8,3.582-8,8   s3.582,8,8,8s8-3.582,8-8S44.418,58,40,58L40,58z" id="svg_9" stroke="#ffffff" stroke-opacity="1" fill="#ffffff" fill-opacity="1"/>
</g></g></svg>