<svg width="60" height="60" xmlns="http://www.w3.org/2000/svg">

 <g>
  <title>background</title>
  <rect fill="none" id="canvas_background" height="402" width="582" y="-1" x="-1"/>
 </g>
 <g>
  <title>Layer 1</title>
  <g stroke="null" id="svg_1">
   <path stroke="null" id="svg_2" d="m42.843177,21.800079l-4.22785,0l-1.983975,-4.959936l-12.575423,0l-1.983975,4.959936l-0.6562,0l0,-2.479968l-2.975962,0l0,2.479968l-0.595688,0c-1.312895,0 -2.380274,1.067378 -2.380274,2.380274l0,14.566341c0,1.321823 1.075314,2.397137 2.397137,2.397137l24.965344,0c1.321823,0 2.397137,-1.075314 2.397137,-2.397137l0,-14.566341c0,-1.312895 -1.067378,-2.380274 -2.380274,-2.380274zm-23.411396,-1.487981l0.991987,0l0,1.487981l-0.991987,0l0,-1.487981zm24.799682,18.434596c0,0.775238 -0.630408,1.40515 -1.40515,1.40515l-24.965344,0c-0.774742,0 -1.40515,-0.630408 -1.40515,-1.40515l0,-14.566341c0,-0.765318 0.622968,-1.388286 1.388286,-1.388286l0.595688,0l2.975962,0l1.327775,0l1.983975,-4.959936l11.232272,0l1.983975,4.959936l4.899425,0c0.765318,0 1.388286,0.622968 1.388286,1.388286l0,14.566341z"/>
   <path stroke="null" id="svg_3" d="m30.343641,21.304086c-4.922737,0 -8.927886,4.005149 -8.927886,8.927886s4.005149,8.927886 8.927886,8.927886s8.927886,-4.005149 8.927886,-8.927886s-4.005149,-8.927886 -8.927886,-8.927886zm0,16.863784c-4.375656,0 -7.935898,-3.560242 -7.935898,-7.935898s3.560242,-7.935898 7.935898,-7.935898s7.935898,3.560242 7.935898,7.935898s-3.560242,7.935898 -7.935898,7.935898z"/>
   <path stroke="null" id="svg_4" d="m30.343641,24.280048c-3.28199,0 -5.951924,2.669934 -5.951924,5.951924s2.669934,5.951924 5.951924,5.951924s5.951924,-2.669934 5.951924,-5.951924s-2.669934,-5.951924 -5.951924,-5.951924zm0,10.91186c-2.734909,0 -4.959936,-2.225027 -4.959936,-4.959936s2.225027,-4.959936 4.959936,-4.959936s4.959936,2.225027 4.959936,4.959936s-2.225027,4.959936 -4.959936,4.959936z"/>
   <path stroke="null" id="svg_5" d="m41.255501,23.784054c-1.094162,0 -1.983975,0.889813 -1.983975,1.983975s0.889813,1.983975 1.983975,1.983975s1.983975,-0.889813 1.983975,-1.983975s-0.889813,-1.983975 -1.983975,-1.983975zm0,2.975962c-0.547081,0 -0.991987,-0.444906 -0.991987,-0.991987s0.444906,-0.991987 0.991987,-0.991987s0.991987,0.444906 0.991987,0.991987s-0.444906,0.991987 -0.991987,0.991987z"/>
  </g>
  <g id="svg_6"/>
  <g id="svg_7"/>
  <g id="svg_8"/>
  <g id="svg_9"/>
  <g id="svg_10"/>
  <g id="svg_11"/>
  <g id="svg_12"/>
  <g id="svg_13"/>
  <g id="svg_14"/>
  <g id="svg_15"/>
  <g id="svg_16"/>
  <g id="svg_17"/>
  <g id="svg_18"/>
  <g id="svg_19"/>
  <g id="svg_20"/>
 </g>
</svg>