<svg height="512pt" viewBox="-80 0 512 512" width="512pt" xmlns="http://www.w3.org/2000/svg"><path d="m352 240h-32c0 79.527344-64.472656 144-144 144-79.53125 0-144-64.472656-144-144h-32c.121094 90.941406 69.445312 166.839844 160 175.183594v96.816406h32v-96.816406c90.554688-8.34375 159.878906-84.242188 160-175.183594zm0 0"/><path d="m176 352c61.824219-.070312 111.929688-50.171875 112-112v-128c0-61.855469-50.144531-112-112-112-61.859375 0-112 50.144531-112 112v128c.070312 61.828125 50.171875 111.929688 112 112zm-80-240c0-44.183594 35.816406-80 80-80s80 35.816406 80 80v128c0 44.183594-35.816406 80-80 80s-80-35.816406-80-80zm0 0"/></svg>